<svg version="1.1" id="Layer_1" xmlns:x="ns_extend;" xmlns:i="ns_ai;" xmlns:graph="ns_graphs;" xmlns="http://www.w3.org/2000/svg" xmlns:xlink="http://www.w3.org/1999/xlink" x="0px" y="0px" viewBox="0 0 75.4 75.4" style="enable-background:new 0 0 75.4 75.4;" xml:space="preserve">
 <style type="text/css">
  .st0{fill:#991D85;}
 </style>
 <metadata>
  <sfw xmlns="ns_sfw;">
   <slices>
   </slices>
   <sliceSourceBounds bottomLeftOrigin="true" height="75.4" width="75.4" x="-58.7" y="-5.5">
   </sliceSourceBounds>
  </sfw>
 </metadata>
 <g>
  <path class="st0" d="M37.7,8.5c-16.1,0-29.2,13-29.2,29.2s13,29.2,29.2,29.2c8.8,0,16.6-3.9,22-10.1H29.2c-0.3,0-0.8-0.2-0.9-0.2
		c-6.8-3.4-11.6-10.5-11.6-18.9c0-8.2,4.7-15.4,11.6-18.9c0.3-0.2,0.6-0.2,0.9-0.2h17.1c0.5,0,0.8,0.2,0.9,0.2
		c3.1,1.6,5.6,3.7,7.6,6.5c0.6,0.8,0,1.9-0.9,1.9h-23c-3.4,2.2-5.7,6-5.7,10.5c0,4.3,2.3,8.2,5.7,10.5h41.4c0.8,0,1.4,0.8,1.1,1.6
		c-5,14.9-19.1,25.6-35.7,25.6C16.9,75.4,0,58.5,0,37.7S16.9,0,37.7,0s37.7,16.9,37.7,37.7c0,1.1,0,2.2-0.2,3.3
		c0,0.6-0.6,1.1-1.1,1.1H33.8c-0.5,0-0.9-0.3-1.1-0.8c-0.5-1.1-0.8-2.3-0.8-3.6s0.3-2.5,0.8-3.6c0.2-0.5,0.6-0.8,1.1-0.8h32.7
		C64.4,19.4,52.3,8.5,37.7,8.5z">
  </path>
 </g>
</svg>